<mxfile host="app.diagrams.net" modified="2021-03-16T18:33:33.390Z" agent="5.0 (Macintosh; Intel Mac OS X 11_2_0) AppleWebKit/537.36 (KHTML, like Gecko) Chrome/89.0.4389.82 Safari/537.36" etag="74S3MiJZXS70cvTMstXF" version="14.3.1" type="github">
  <diagram id="prtHgNgQTEPvFCAcTncT" name="Page-1">
    <mxGraphModel dx="2146" dy="882" grid="1" gridSize="10" guides="1" tooltips="1" connect="1" arrows="1" fold="1" page="1" pageScale="1" pageWidth="827" pageHeight="1169" math="0" shadow="0">
      <root>
        <mxCell id="0" />
        <mxCell id="1" parent="0" />
        <mxCell id="3Sa6O5D4K2Z7BfHcEVfZ-3" value="" style="ellipse;whiteSpace=wrap;html=1;aspect=fixed;strokeColor=#363636;shadow=0;fillColor=#080808;" vertex="1" parent="1">
          <mxGeometry x="107.5" y="50" width="30" height="30" as="geometry" />
        </mxCell>
        <mxCell id="3Sa6O5D4K2Z7BfHcEVfZ-4" value="&lt;font style=&quot;font-size: 14px&quot;&gt;Check Validity of Review&lt;/font&gt;" style="rounded=1;whiteSpace=wrap;html=1;" vertex="1" parent="1">
          <mxGeometry x="600" y="870" width="120" height="40" as="geometry" />
        </mxCell>
        <mxCell id="3Sa6O5D4K2Z7BfHcEVfZ-5" value="" style="rhombus;whiteSpace=wrap;html=1;shadow=1;strokeColor=#363636;fillColor=#99CCFF;" vertex="1" parent="1">
          <mxGeometry x="105" y="260" width="35" height="50" as="geometry" />
        </mxCell>
        <mxCell id="3Sa6O5D4K2Z7BfHcEVfZ-8" value="&lt;font style=&quot;font-size: 14px&quot;&gt;Number of Stars&lt;/font&gt;" style="rounded=1;whiteSpace=wrap;html=1;" vertex="1" parent="1">
          <mxGeometry x="65" y="585" width="115" height="40" as="geometry" />
        </mxCell>
        <mxCell id="3Sa6O5D4K2Z7BfHcEVfZ-9" value="&lt;font style=&quot;font-size: 14px&quot;&gt;Leave Tip&lt;/font&gt;" style="rounded=1;whiteSpace=wrap;html=1;" vertex="1" parent="1">
          <mxGeometry x="70" y="190" width="105" height="40" as="geometry" />
        </mxCell>
        <mxCell id="3Sa6O5D4K2Z7BfHcEVfZ-10" value="&lt;font style=&quot;font-size: 14px&quot;&gt;View Review&lt;/font&gt;" style="rounded=1;whiteSpace=wrap;html=1;" vertex="1" parent="1">
          <mxGeometry x="340" y="1030" width="110" height="40" as="geometry" />
        </mxCell>
        <mxCell id="3Sa6O5D4K2Z7BfHcEVfZ-11" value="&lt;font style=&quot;font-size: 14px&quot;&gt;View Review&lt;/font&gt;" style="rounded=1;whiteSpace=wrap;html=1;" vertex="1" parent="1">
          <mxGeometry x="70" y="1030" width="110" height="40" as="geometry" />
        </mxCell>
        <mxCell id="3Sa6O5D4K2Z7BfHcEVfZ-12" value="&lt;font style=&quot;font-size: 14px&quot;&gt;Access Tip in Wallet&lt;/font&gt;" style="rounded=1;whiteSpace=wrap;html=1;" vertex="1" parent="1">
          <mxGeometry x="320" y="505" width="120" height="40" as="geometry" />
        </mxCell>
        <mxCell id="3Sa6O5D4K2Z7BfHcEVfZ-13" value="&lt;font style=&quot;font-size: 14px&quot;&gt;Click Review&lt;/font&gt;" style="rounded=1;whiteSpace=wrap;html=1;" vertex="1" parent="1">
          <mxGeometry x="70" y="110" width="105" height="40" as="geometry" />
        </mxCell>
        <mxCell id="3Sa6O5D4K2Z7BfHcEVfZ-14" value="&lt;font style=&quot;font-size: 14px&quot;&gt;Input Card Details&lt;/font&gt;" style="rounded=1;whiteSpace=wrap;html=1;" vertex="1" parent="1">
          <mxGeometry x="65" y="330" width="115" height="40" as="geometry" />
        </mxCell>
        <mxCell id="3Sa6O5D4K2Z7BfHcEVfZ-15" value="&lt;font style=&quot;font-size: 14px&quot;&gt;Leave a comment&lt;/font&gt;" style="rounded=1;whiteSpace=wrap;html=1;" vertex="1" parent="1">
          <mxGeometry x="65" y="730" width="115" height="40" as="geometry" />
        </mxCell>
        <mxCell id="3Sa6O5D4K2Z7BfHcEVfZ-16" value="&lt;font style=&quot;font-size: 14px&quot;&gt;Submit Details&lt;/font&gt;" style="rounded=1;whiteSpace=wrap;html=1;" vertex="1" parent="1">
          <mxGeometry x="65" y="420" width="115" height="40" as="geometry" />
        </mxCell>
        <mxCell id="3Sa6O5D4K2Z7BfHcEVfZ-17" value="&lt;font style=&quot;font-size: 14px&quot;&gt;Submit Review&lt;/font&gt;" style="rounded=1;whiteSpace=wrap;html=1;" vertex="1" parent="1">
          <mxGeometry x="70" y="870" width="105" height="40" as="geometry" />
        </mxCell>
        <mxCell id="3Sa6O5D4K2Z7BfHcEVfZ-18" value="&lt;font style=&quot;font-size: 14px&quot;&gt;Notify User of invalid review&lt;/font&gt;" style="rounded=1;whiteSpace=wrap;html=1;" vertex="1" parent="1">
          <mxGeometry x="610" y="1110" width="105" height="40" as="geometry" />
        </mxCell>
        <mxCell id="3Sa6O5D4K2Z7BfHcEVfZ-20" value="" style="rhombus;whiteSpace=wrap;html=1;shadow=1;strokeColor=#363636;fillColor=#99CCFF;" vertex="1" parent="1">
          <mxGeometry x="107.5" y="790" width="35" height="50" as="geometry" />
        </mxCell>
        <mxCell id="3Sa6O5D4K2Z7BfHcEVfZ-21" value="" style="rhombus;whiteSpace=wrap;html=1;shadow=1;strokeColor=#363636;fillColor=#99CCFF;" vertex="1" parent="1">
          <mxGeometry x="105" y="650" width="35" height="50" as="geometry" />
        </mxCell>
        <mxCell id="3Sa6O5D4K2Z7BfHcEVfZ-22" value="" style="rhombus;whiteSpace=wrap;html=1;shadow=1;strokeColor=#363636;fillColor=#99CCFF;" vertex="1" parent="1">
          <mxGeometry x="105" y="500" width="35" height="50" as="geometry" />
        </mxCell>
        <mxCell id="3Sa6O5D4K2Z7BfHcEVfZ-23" value="" style="endArrow=classic;html=1;exitX=0.5;exitY=1;exitDx=0;exitDy=0;entryX=0.5;entryY=0;entryDx=0;entryDy=0;" edge="1" parent="1" source="3Sa6O5D4K2Z7BfHcEVfZ-3" target="3Sa6O5D4K2Z7BfHcEVfZ-13">
          <mxGeometry width="50" height="50" relative="1" as="geometry">
            <mxPoint x="400" y="390" as="sourcePoint" />
            <mxPoint x="450" y="340" as="targetPoint" />
          </mxGeometry>
        </mxCell>
        <mxCell id="3Sa6O5D4K2Z7BfHcEVfZ-24" value="" style="endArrow=classic;html=1;entryX=0.5;entryY=0;entryDx=0;entryDy=0;" edge="1" parent="1" target="3Sa6O5D4K2Z7BfHcEVfZ-9">
          <mxGeometry width="50" height="50" relative="1" as="geometry">
            <mxPoint x="123" y="150" as="sourcePoint" />
            <mxPoint x="124.5" y="180" as="targetPoint" />
          </mxGeometry>
        </mxCell>
        <mxCell id="3Sa6O5D4K2Z7BfHcEVfZ-25" value="" style="endArrow=classic;html=1;exitX=0.5;exitY=1;exitDx=0;exitDy=0;" edge="1" parent="1" source="3Sa6O5D4K2Z7BfHcEVfZ-9" target="3Sa6O5D4K2Z7BfHcEVfZ-5">
          <mxGeometry width="50" height="50" relative="1" as="geometry">
            <mxPoint x="120" y="250" as="sourcePoint" />
            <mxPoint x="120" y="260" as="targetPoint" />
          </mxGeometry>
        </mxCell>
        <mxCell id="3Sa6O5D4K2Z7BfHcEVfZ-26" value="" style="endArrow=classic;html=1;entryX=0.5;entryY=0;entryDx=0;entryDy=0;" edge="1" parent="1">
          <mxGeometry width="50" height="50" relative="1" as="geometry">
            <mxPoint x="122" y="310" as="sourcePoint" />
            <mxPoint x="122" y="330" as="targetPoint" />
          </mxGeometry>
        </mxCell>
        <mxCell id="3Sa6O5D4K2Z7BfHcEVfZ-27" value="" style="endArrow=classic;html=1;exitX=0.5;exitY=1;exitDx=0;exitDy=0;entryX=0.5;entryY=0;entryDx=0;entryDy=0;" edge="1" parent="1" target="3Sa6O5D4K2Z7BfHcEVfZ-16">
          <mxGeometry width="50" height="50" relative="1" as="geometry">
            <mxPoint x="122" y="370" as="sourcePoint" />
            <mxPoint x="122" y="400" as="targetPoint" />
          </mxGeometry>
        </mxCell>
        <mxCell id="3Sa6O5D4K2Z7BfHcEVfZ-29" value="&lt;font style=&quot;font-size: 14px&quot;&gt;Confirm Review&lt;/font&gt;" style="rounded=1;whiteSpace=wrap;html=1;" vertex="1" parent="1">
          <mxGeometry x="605" y="950" width="110" height="40" as="geometry" />
        </mxCell>
        <mxCell id="3Sa6O5D4K2Z7BfHcEVfZ-31" value="" style="endArrow=classic;html=1;exitX=0.5;exitY=1;exitDx=0;exitDy=0;" edge="1" parent="1">
          <mxGeometry width="50" height="50" relative="1" as="geometry">
            <mxPoint x="122" y="460" as="sourcePoint" />
            <mxPoint x="123" y="500" as="targetPoint" />
          </mxGeometry>
        </mxCell>
        <mxCell id="3Sa6O5D4K2Z7BfHcEVfZ-32" value="" style="endArrow=classic;html=1;entryX=0.5;entryY=0;entryDx=0;entryDy=0;" edge="1" parent="1">
          <mxGeometry width="50" height="50" relative="1" as="geometry">
            <mxPoint x="122" y="550" as="sourcePoint" />
            <mxPoint x="122" y="585" as="targetPoint" />
          </mxGeometry>
        </mxCell>
        <mxCell id="3Sa6O5D4K2Z7BfHcEVfZ-33" value="" style="endArrow=classic;html=1;entryX=0.5;entryY=0;entryDx=0;entryDy=0;exitX=0.5;exitY=1;exitDx=0;exitDy=0;" edge="1" parent="1" source="3Sa6O5D4K2Z7BfHcEVfZ-8">
          <mxGeometry width="50" height="50" relative="1" as="geometry">
            <mxPoint x="122" y="630" as="sourcePoint" />
            <mxPoint x="122" y="650" as="targetPoint" />
          </mxGeometry>
        </mxCell>
        <mxCell id="3Sa6O5D4K2Z7BfHcEVfZ-34" value="" style="endArrow=classic;html=1;exitX=0.5;exitY=1;exitDx=0;exitDy=0;" edge="1" parent="1" source="3Sa6O5D4K2Z7BfHcEVfZ-21">
          <mxGeometry width="50" height="50" relative="1" as="geometry">
            <mxPoint x="130" y="720" as="sourcePoint" />
            <mxPoint x="123" y="730" as="targetPoint" />
          </mxGeometry>
        </mxCell>
        <mxCell id="3Sa6O5D4K2Z7BfHcEVfZ-35" value="" style="endArrow=classic;html=1;entryX=0.5;entryY=0;entryDx=0;entryDy=0;" edge="1" parent="1" target="3Sa6O5D4K2Z7BfHcEVfZ-20">
          <mxGeometry width="50" height="50" relative="1" as="geometry">
            <mxPoint x="125" y="771" as="sourcePoint" />
            <mxPoint x="290.5" y="860" as="targetPoint" />
          </mxGeometry>
        </mxCell>
        <mxCell id="3Sa6O5D4K2Z7BfHcEVfZ-36" value="" style="endArrow=classic;html=1;entryX=0.5;entryY=0;entryDx=0;entryDy=0;" edge="1" parent="1">
          <mxGeometry width="50" height="50" relative="1" as="geometry">
            <mxPoint x="125" y="840" as="sourcePoint" />
            <mxPoint x="125" y="870" as="targetPoint" />
          </mxGeometry>
        </mxCell>
        <mxCell id="3Sa6O5D4K2Z7BfHcEVfZ-37" value="" style="endArrow=classic;html=1;exitX=1;exitY=0.5;exitDx=0;exitDy=0;entryX=0;entryY=0.5;entryDx=0;entryDy=0;" edge="1" parent="1" source="3Sa6O5D4K2Z7BfHcEVfZ-22" target="3Sa6O5D4K2Z7BfHcEVfZ-12">
          <mxGeometry width="50" height="50" relative="1" as="geometry">
            <mxPoint x="170" y="550" as="sourcePoint" />
            <mxPoint x="170.5" y="600" as="targetPoint" />
          </mxGeometry>
        </mxCell>
        <mxCell id="3Sa6O5D4K2Z7BfHcEVfZ-38" value="" style="endArrow=classic;html=1;exitX=0;exitY=0.5;exitDx=0;exitDy=0;entryX=0;entryY=0.5;entryDx=0;entryDy=0;" edge="1" parent="1" source="3Sa6O5D4K2Z7BfHcEVfZ-22" target="3Sa6O5D4K2Z7BfHcEVfZ-14">
          <mxGeometry width="50" height="50" relative="1" as="geometry">
            <mxPoint x="400" y="490" as="sourcePoint" />
            <mxPoint x="30" y="510" as="targetPoint" />
            <Array as="points">
              <mxPoint x="30" y="525" />
              <mxPoint x="30" y="350" />
            </Array>
          </mxGeometry>
        </mxCell>
        <mxCell id="3Sa6O5D4K2Z7BfHcEVfZ-39" value="" style="rhombus;whiteSpace=wrap;html=1;shadow=1;strokeColor=#363636;fillColor=#99CCFF;" vertex="1" parent="1">
          <mxGeometry x="642.5" y="1025" width="35" height="50" as="geometry" />
        </mxCell>
        <mxCell id="3Sa6O5D4K2Z7BfHcEVfZ-40" value="" style="endArrow=classic;html=1;exitX=1;exitY=0.5;exitDx=0;exitDy=0;entryX=0;entryY=0.5;entryDx=0;entryDy=0;" edge="1" parent="1" source="3Sa6O5D4K2Z7BfHcEVfZ-17" target="3Sa6O5D4K2Z7BfHcEVfZ-4">
          <mxGeometry width="50" height="50" relative="1" as="geometry">
            <mxPoint x="390" y="920" as="sourcePoint" />
            <mxPoint x="440" y="870" as="targetPoint" />
          </mxGeometry>
        </mxCell>
        <mxCell id="3Sa6O5D4K2Z7BfHcEVfZ-41" value="" style="endArrow=classic;html=1;exitX=0.5;exitY=1;exitDx=0;exitDy=0;entryX=0.5;entryY=0;entryDx=0;entryDy=0;" edge="1" parent="1" source="3Sa6O5D4K2Z7BfHcEVfZ-4" target="3Sa6O5D4K2Z7BfHcEVfZ-29">
          <mxGeometry width="50" height="50" relative="1" as="geometry">
            <mxPoint x="390" y="650" as="sourcePoint" />
            <mxPoint x="440" y="600" as="targetPoint" />
          </mxGeometry>
        </mxCell>
        <mxCell id="3Sa6O5D4K2Z7BfHcEVfZ-42" value="" style="endArrow=classic;html=1;exitX=0.5;exitY=1;exitDx=0;exitDy=0;entryX=0.5;entryY=0;entryDx=0;entryDy=0;" edge="1" parent="1" source="3Sa6O5D4K2Z7BfHcEVfZ-29" target="3Sa6O5D4K2Z7BfHcEVfZ-39">
          <mxGeometry width="50" height="50" relative="1" as="geometry">
            <mxPoint x="390" y="930" as="sourcePoint" />
            <mxPoint x="440" y="880" as="targetPoint" />
          </mxGeometry>
        </mxCell>
        <mxCell id="3Sa6O5D4K2Z7BfHcEVfZ-43" value="" style="endArrow=classic;html=1;exitX=0.5;exitY=1;exitDx=0;exitDy=0;entryX=0.5;entryY=0;entryDx=0;entryDy=0;" edge="1" parent="1" source="3Sa6O5D4K2Z7BfHcEVfZ-39" target="3Sa6O5D4K2Z7BfHcEVfZ-18">
          <mxGeometry width="50" height="50" relative="1" as="geometry">
            <mxPoint x="390" y="930" as="sourcePoint" />
            <mxPoint x="440" y="880" as="targetPoint" />
          </mxGeometry>
        </mxCell>
        <mxCell id="3Sa6O5D4K2Z7BfHcEVfZ-44" value="" style="endArrow=classic;html=1;exitX=0;exitY=0.5;exitDx=0;exitDy=0;" edge="1" parent="1" source="3Sa6O5D4K2Z7BfHcEVfZ-39" target="3Sa6O5D4K2Z7BfHcEVfZ-10">
          <mxGeometry width="50" height="50" relative="1" as="geometry">
            <mxPoint x="390" y="930" as="sourcePoint" />
            <mxPoint x="440" y="880" as="targetPoint" />
          </mxGeometry>
        </mxCell>
        <mxCell id="3Sa6O5D4K2Z7BfHcEVfZ-45" value="" style="endArrow=classic;html=1;exitX=0;exitY=0.5;exitDx=0;exitDy=0;entryX=1;entryY=0.5;entryDx=0;entryDy=0;" edge="1" parent="1" source="3Sa6O5D4K2Z7BfHcEVfZ-10" target="3Sa6O5D4K2Z7BfHcEVfZ-11">
          <mxGeometry width="50" height="50" relative="1" as="geometry">
            <mxPoint x="390" y="930" as="sourcePoint" />
            <mxPoint x="440" y="880" as="targetPoint" />
          </mxGeometry>
        </mxCell>
        <mxCell id="3Sa6O5D4K2Z7BfHcEVfZ-47" value="" style="ellipse;whiteSpace=wrap;html=1;aspect=fixed;shadow=0;strokeColor=#363636;fillColor=#080808;" vertex="1" parent="1">
          <mxGeometry x="370" y="1100" width="50" height="50" as="geometry" />
        </mxCell>
        <mxCell id="3Sa6O5D4K2Z7BfHcEVfZ-49" value="" style="verticalLabelPosition=bottom;verticalAlign=top;html=1;shape=mxgraph.basic.rounded_frame;dx=10;shadow=1;strokeColor=#363636;fillColor=#FAFAFA;" vertex="1" parent="1">
          <mxGeometry x="370" y="1100" width="50" height="50" as="geometry" />
        </mxCell>
        <mxCell id="3Sa6O5D4K2Z7BfHcEVfZ-50" value="" style="endArrow=classic;html=1;exitX=0.5;exitY=1;exitDx=0;exitDy=0;" edge="1" parent="1" source="3Sa6O5D4K2Z7BfHcEVfZ-10">
          <mxGeometry width="50" height="50" relative="1" as="geometry">
            <mxPoint x="390" y="850" as="sourcePoint" />
            <mxPoint x="395" y="1100" as="targetPoint" />
          </mxGeometry>
        </mxCell>
        <mxCell id="3Sa6O5D4K2Z7BfHcEVfZ-51" value="" style="endArrow=classic;html=1;exitX=0.5;exitY=1;exitDx=0;exitDy=0;entryX=0;entryY=0.5;entryDx=0;entryDy=0;entryPerimeter=0;" edge="1" parent="1" source="3Sa6O5D4K2Z7BfHcEVfZ-11" target="3Sa6O5D4K2Z7BfHcEVfZ-49">
          <mxGeometry width="50" height="50" relative="1" as="geometry">
            <mxPoint x="390" y="850" as="sourcePoint" />
            <mxPoint x="125" y="1150" as="targetPoint" />
            <Array as="points">
              <mxPoint x="125" y="1125" />
            </Array>
          </mxGeometry>
        </mxCell>
      </root>
    </mxGraphModel>
  </diagram>
</mxfile>
